<svg width="423" height="307" viewBox="0 0 423 307" fill="none" xmlns="http://www.w3.org/2000/svg">
<path d="M290.903 226.176C286.197 245.991 232.648 292.849 189.692 301.583C160.962 308.675 130.791 307.284 102.835 297.578C74.8796 287.873 50.3376 270.27 32.1822 246.901C14.0268 223.532 3.03705 195.399 0.544047 165.912C-1.94895 136.424 4.16178 106.847 18.1361 80.7613C32.1104 54.6759 53.3486 33.2022 79.2783 18.9411C105.208 4.67999 134.717 -1.75653 164.23 0.411156C202.429 -0.273186 249.587 31.0084 265.127 51.5525L217.742 67.7904C201.259 55.274 181.501 47.8054 160.86 46.2894C140.219 44.7734 119.582 49.2749 101.447 59.2488C83.3126 69.2226 68.4591 84.2409 58.6858 102.484C48.9125 120.728 44.6388 141.414 46.3824 162.037C48.1259 182.659 55.8119 202.334 68.5093 218.678C81.2067 235.022 98.3708 247.333 117.922 254.121C137.474 260.908 158.575 261.881 178.668 256.921C198.761 251.962 216.985 241.282 231.133 226.176C256.997 228.887 269.972 228.495 290.903 226.176Z" fill="#359E2C"/>
<path d="M403.419 49.5064C396.381 26.1238 303.769 47.6973 169.292 95.6549C122.092 112.488 126.211 170.614 89.6036 233.623C128.882 215.62 123.515 137.863 169.292 128.472C293.513 104.774 349.467 86.9762 368.879 79.6481C387.724 72.1413 405.489 64.0894 403.419 49.5064Z" fill="#359E2C"/>
<path d="M305.442 192.08C270.301 182.627 211.938 203.851 137.922 203.851C160.386 210.302 211.938 219.303 258.99 219.303C306.042 219.303 323.792 197.016 305.442 192.08Z" fill="url(#paint0_linear_555_16413)"/>
<path d="M341.008 147.219C300.857 140.176 236.837 166.185 153.704 171.683C179.4 176.602 237.952 181.965 290.799 178.471C343.646 174.976 361.974 150.897 341.008 147.219Z" fill="url(#paint1_linear_555_16413)"/>
<path d="M370.812 98.9004C326.293 96.6133 258.653 129.081 168.28 143.821C196.809 145.684 261.289 144.259 318.739 134.889C376.189 125.52 394.058 100.095 370.812 98.9004Z" fill="url(#paint2_linear_555_16413)"/>
<defs>
<linearGradient id="paint0_linear_555_16413" x1="225.548" y1="188.235" x2="224.829" y2="218.602" gradientUnits="userSpaceOnUse">
<stop stop-color="#FEB80A"/>
<stop offset="0.432292" stop-color="#0F240D"/>
</linearGradient>
<linearGradient id="paint1_linear_555_16413" x1="250.996" y1="149.227" x2="252.38" y2="180.292" gradientUnits="userSpaceOnUse">
<stop stop-color="#FEB80A"/>
<stop offset="0.614583" stop-color="#0F240D"/>
</linearGradient>
<linearGradient id="paint2_linear_555_16413" x1="272.606" y1="111.034" x2="276.909" y2="141.003" gradientUnits="userSpaceOnUse">
<stop stop-color="#FEB80A"/>
<stop offset="0.90625" stop-color="#0F240D"/>
</linearGradient>
</defs>
</svg>
